{
  "accessors": [
    {
      "bufferView": 2,
      "componentType": 5126,
      "count": 1216,
      "max": [
        0.21216000616550446,
        -0.2108599990606308,
        2.3619399070739746
      ],
      "min": [
        -0.2431900054216385,
        -0.3688499927520752,
        1.3341000080108643
      ],
      "type": "VEC3"
    },
    {
      "bufferView": 2,
      "byteOffset": 14592,
      "componentType": 5126,
      "count": 1216,
      "max": [
        0.9995590448379517,
        0.9989726543426514,
        0.9983333349227905
      ],
      "min": [
        -0.9990261793136597,
        -0.9986351132392883,
        -0.9857376217842102
      ],
      "type": "VEC3"
    },
    {
      "bufferView": 1,
      "componentType": 5126,
      "count": 1216,
      "max": [
        0.8433200120925903,
        0.9299899935722351
      ],
      "min": [
        0.09132999926805496,
        0.4528200030326843
      ],
      "type": "VEC2"
    },
    {
      "bufferView": 0,
      "componentType": 5125,
      "count": 5952,
      "type": "SCALAR"
    },
    {
      "bufferView": 2,
      "byteOffset": 29184,
      "componentType": 5126,
      "count": 1230,
      "max": [
        0.753600001335144,
        0.3127099871635437,
        2.4105899333953857
      ],
      "min": [
        0.3099200129508972,
        -0.15759000182151794,
        1.3540199995040894
      ],
      "type": "VEC3"
    },
    {
      "bufferView": 2,
      "byteOffset": 43944,
      "componentType": 5126,
      "count": 1230,
      "max": [
        0.998343288898468,
        0.9994778037071228,
        0.99540114402771
      ],
      "min": [
        -0.9990791082382202,
        -0.9992014765739441,
        -0.9953203797340393
      ],
      "type": "VEC3"
    },
    {
      "bufferView": 1,
      "byteOffset": 9728,
      "componentType": 5126,
      "count": 1230,
      "max": [
        0.8599100112915039,
        1.0004899501800537
      ],
      "min": [
        0.09241999685764313,
        0.45149001479148865
      ],
      "type": "VEC2"
    },
    {
      "bufferView": 0,
      "byteOffset": 23808,
      "componentType": 5125,
      "count": 5952,
      "type": "SCALAR"
    },
    {
      "bufferView": 2,
      "byteOffset": 58704,
      "componentType": 5126,
      "count": 1229,
      "max": [
        0.753600001335144,
        0.3127099871635437,
        2.4105899333953857
      ],
      "min": [
        0.3099200129508972,
        -0.15759000182151794,
        1.3540199995040894
      ],
      "type": "VEC3"
    },
    {
      "bufferView": 2,
      "byteOffset": 73452,
      "componentType": 5126,
      "count": 1229,
      "max": [
        0.9978923797607422,
        0.9994778037071228,
        0.99540114402771
      ],
      "min": [
        -0.9990791082382202,
        -0.9993543028831482,
        -0.9953203797340393
      ],
      "type": "VEC3"
    },
    {
      "bufferView": 1,
      "byteOffset": 19568,
      "componentType": 5126,
      "count": 1229,
      "max": [
        0.8369799852371216,
        1.0029000043869019
      ],
      "min": [
        0.0975399985909462,
        0.45427000522613525
      ],
      "type": "VEC2"
    },
    {
      "bufferView": 0,
      "byteOffset": 47616,
      "componentType": 5125,
      "count": 5952,
      "type": "SCALAR"
    },
    {
      "bufferView": 2,
      "byteOffset": 88200,
      "componentType": 5126,
      "count": 160,
      "max": [
        0.7133499979972839,
        1.0758899450302124,
        0.30741000175476074
      ],
      "min": [
        -0.7133499979972839,
        -0.3779900074005127,
        -0.43140000104904175
      ],
      "type": "VEC3"
    },
    {
      "bufferView": 2,
      "byteOffset": 90120,
      "componentType": 5126,
      "count": 160,
      "max": [
        0.9703903794288635,
        0.9873732924461365,
        0.9979008436203003
      ],
      "min": [
        -0.9734911322593689,
        -0.9839216470718384,
        -0.9978550672531128
      ],
      "type": "VEC3"
    },
    {
      "bufferView": 1,
      "byteOffset": 29400,
      "componentType": 5126,
      "count": 160,
      "max": [
        0.9660400152206421,
        0.9511600136756897
      ],
      "min": [
        0.6447399854660034,
        0.8434100151062012
      ],
      "type": "VEC2"
    },
    {
      "bufferView": 0,
      "byteOffset": 71424,
      "componentType": 5125,
      "count": 516,
      "type": "SCALAR"
    },
    {
      "bufferView": 2,
      "byteOffset": 92040,
      "componentType": 5126,
      "count": 1448,
      "max": [
        0.8561199903488159,
        0.34790000319480896,
        0.1196800023317337
      ],
      "min": [
        -0.8561199903488159,
        -0.28755998611450195,
        -0.5004900097846985
      ],
      "type": "VEC3"
    },
    {
      "bufferView": 2,
      "byteOffset": 109416,
      "componentType": 5126,
      "count": 1448,
      "max": [
        0.9998627305030823,
        0.9982127547264099,
        0.9996761083602905
      ],
      "min": [
        -0.994645893573761,
        -0.9995591640472412,
        -0.9999924302101135
      ],
      "type": "VEC3"
    },
    {
      "bufferView": 1,
      "byteOffset": 30680,
      "componentType": 5126,
      "count": 1448,
      "max": [
        0.9050499796867371,
        0.9543899893760681
      ],
      "min": [
        0.15404999256134033,
        0.42403000593185425
      ],
      "type": "VEC2"
    },
    {
      "bufferView": 0,
      "byteOffset": 73488,
      "componentType": 5125,
      "count": 5616,
      "type": "SCALAR"
    },
    {
      "bufferView": 2,
      "byteOffset": 126792,
      "componentType": 5126,
      "count": 82,
      "max": [
        1.1633199453353882,
        2.456399917602539,
        0.5339699983596802
      ],
      "min": [
        -1.3518600463867188,
        1.078410029411316,
        -0.37171998620033264
      ],
      "type": "VEC3"
    },
    {
      "bufferView": 2,
      "byteOffset": 127776,
      "componentType": 5126,
      "count": 82,
      "max": [
        0.9754126667976379,
        0.9886479377746582,
        0.9220816493034363
      ],
      "min": [
        -0.9594511985778809,
        -0.8471167087554932,
        -0.9388449788093567
      ],
      "type": "VEC3"
    },
    {
      "bufferView": 1,
      "byteOffset": 42264,
      "componentType": 5126,
      "count": 82,
      "max": [
        0.6212800145149231,
        0.2414499968290329
      ],
      "min": [
        0.6212800145149231,
        0.2414499968290329
      ],
      "type": "VEC2"
    },
    {
      "bufferView": 0,
      "byteOffset": 95952,
      "componentType": 5125,
      "count": 405,
      "type": "SCALAR"
    },
    {
      "bufferView": 2,
      "byteOffset": 128760,
      "componentType": 5126,
      "count": 2561,
      "max": [
        2.0064899921417236,
        1.8978699445724487,
        0.4230700135231018
      ],
      "min": [
        -2.520740032196045,
        -8.685219764709473,
        -4.153850078582764
      ],
      "type": "VEC3"
    },
    {
      "bufferView": 2,
      "byteOffset": 159492,
      "componentType": 5126,
      "count": 2561,
      "max": [
        1.0,
        0.998865008354187,
        0.9982401132583618
      ],
      "min": [
        -0.9991389513015747,
        -0.999776303768158,
        -0.9999768137931824
      ],
      "type": "VEC3"
    },
    {
      "bufferView": 1,
      "byteOffset": 42920,
      "componentType": 5126,
      "count": 2561,
      "max": [
        0.6444000005722046,
        0.24431000649929047
      ],
      "min": [
        0.6444000005722046,
        0.24431000649929047
      ],
      "type": "VEC2"
    },
    {
      "bufferView": 0,
      "byteOffset": 97572,
      "componentType": 5125,
      "count": 15366,
      "type": "SCALAR"
    },
    {
      "bufferView": 2,
      "byteOffset": 190224,
      "componentType": 5126,
      "count": 546,
      "max": [
        1.0212500095367432,
        1.8548200130462646,
        1.150149941444397
      ],
      "min": [
        -0.9402899742126465,
        -1.0711499452590942,
        -0.34689998626708984
      ],
      "type": "VEC3"
    },
    {
      "bufferView": 2,
      "byteOffset": 196776,
      "componentType": 5126,
      "count": 546,
      "max": [
        0.9995166659355164,
        0.9984256029129028,
        0.9974659085273743
      ],
      "min": [
        -0.9983499646186829,
        -0.990157961845398,
        -0.9990828633308411
      ],
      "type": "VEC3"
    },
    {
      "bufferView": 1,
      "byteOffset": 63408,
      "componentType": 5126,
      "count": 546,
      "max": [
        0.6248900294303894,
        0.26269999146461487
      ],
      "min": [
        0.6248900294303894,
        0.26269999146461487
      ],
      "type": "VEC2"
    },
    {
      "bufferView": 0,
      "byteOffset": 159036,
      "componentType": 5125,
      "count": 3264,
      "type": "SCALAR"
    },
    {
      "bufferView": 2,
      "byteOffset": 203328,
      "componentType": 5126,
      "count": 9169,
      "max": [
        1.6656099557876587,
        4.132870197296143,
        0.4099699854850769
      ],
      "min": [
        -1.6656099557876587,
        -0.00546000013127923,
        -0.3431900143623352
      ],
      "type": "VEC3"
    },
    {
      "bufferView": 2,
      "byteOffset": 313356,
      "componentType": 5126,
      "count": 9169,
      "max": [
        0.999981701374054,
        0.9998666644096375,
        0.9999917149543762
      ],
      "min": [
        -0.999981701374054,
        -0.9999781250953674,
        -0.9999993443489075
      ],
      "type": "VEC3"
    },
    {
      "bufferView": 1,
      "byteOffset": 67776,
      "componentType": 5126,
      "count": 9169,
      "max": [
        0.9858499765396118,
        0.9577599763870239
      ],
      "min": [
        0.0,
        0.0
      ],
      "type": "VEC2"
    },
    {
      "bufferView": 0,
      "byteOffset": 172092,
      "componentType": 5125,
      "count": 41388,
      "type": "SCALAR"
    },
    {
      "bufferView": 2,
      "byteOffset": 423384,
      "componentType": 5126,
      "count": 1261,
      "max": [
        0.12455999851226807,
        3.892469882965088,
        0.1707099974155426
      ],
      "min": [
        -0.12455999851226807,
        3.779819965362549,
        0.053119998425245285
      ],
      "type": "VEC3"
    },
    {
      "bufferView": 2,
      "byteOffset": 438516,
      "componentType": 5126,
      "count": 1261,
      "max": [
        0.9947766065597534,
        0.9910868406295776,
        0.999973475933075
      ],
      "min": [
        -0.9987998008728027,
        -0.9910880327224731,
        -0.9999735951423645
      ],
      "type": "VEC3"
    },
    {
      "bufferView": 1,
      "byteOffset": 141128,
      "componentType": 5126,
      "count": 1261,
      "max": [
        0.8998399972915649,
        0.9459499716758728
      ],
      "min": [
        0.06638000160455704,
        0.10016000270843506
      ],
      "type": "VEC2"
    },
    {
      "bufferView": 0,
      "byteOffset": 337644,
      "componentType": 5125,
      "count": 6648,
      "type": "SCALAR"
    },
    {
      "bufferView": 2,
      "byteOffset": 453648,
      "componentType": 5126,
      "count": 84,
      "max": [
        0.13431000709533691,
        3.8836300373077393,
        0.19596000015735626
      ],
      "min": [
        -0.13431000709533691,
        3.848989963531494,
        0.146589994430542
      ],
      "type": "VEC3"
    },
    {
      "bufferView": 2,
      "byteOffset": 454656,
      "componentType": 5126,
      "count": 84,
      "max": [
        0.9302177429199219,
        0.8120920062065125,
        0.9638341665267944
      ],
      "min": [
        -0.9302132725715637,
        -0.974046528339386,
        -0.9800885915756226
      ],
      "type": "VEC3"
    },
    {
      "bufferView": 1,
      "byteOffset": 151216,
      "componentType": 5126,
      "count": 84,
      "max": [
        0.7437599897384644,
        0.22992999851703644
      ],
      "min": [
        0.5903800129890442,
        0.20750999450683594
      ],
      "type": "VEC2"
    },
    {
      "bufferView": 0,
      "byteOffset": 364236,
      "componentType": 5125,
      "count": 480,
      "type": "SCALAR"
    },
    {
      "bufferView": 2,
      "byteOffset": 455664,
      "componentType": 5126,
      "count": 1986,
      "max": [
        0.9904199838638306,
        0.9904199838638306,
        0.9990000128746033
      ],
      "min": [
        -0.9904199838638306,
        -0.9904199838638306,
        -0.9990000128746033
      ],
      "type": "VEC3"
    },
    {
      "bufferView": 2,
      "byteOffset": 479496,
      "componentType": 5126,
      "count": 1986,
      "max": [
        1.0,
        1.0,
        1.0
      ],
      "min": [
        -1.0,
        -1.0,
        -1.0
      ],
      "type": "VEC3"
    },
    {
      "bufferView": 0,
      "byteOffset": 366156,
      "componentType": 5125,
      "count": 11904,
      "type": "SCALAR"
    }
  ],
  "asset": {
    "extras": {
      "author": "Renks (https://sketchfab.com/renks)",
      "license": "CC-BY-4.0 (http://creativecommons.org/licenses/by/4.0/)",
      "source": "https://sketchfab.com/3d-models/madara-uchiha-59febdc9c4c7407596eec82519c66904",
      "title": "Madara Uchiha"
    },
    "generator": "Sketchfab-12.67.0",
    "version": "2.0"
  },
  "bufferViews": [
    {
      "buffer": 0,
      "byteLength": 413772,
      "name": "floatBufferViews",
      "target": 34963
    },
    {
      "buffer": 0,
      "byteLength": 151888,
      "byteOffset": 413772,
      "byteStride": 8,
      "name": "floatBufferViews",
      "target": 34962
    },
    {
      "buffer": 0,
      "byteLength": 503328,
      "byteOffset": 565660,
      "byteStride": 12,
      "name": "floatBufferViews",
      "target": 34962
    }
  ],
  "buffers": [
    {
      "byteLength": 1068988,
      "uri": "scene.bin"
    }
  ],
  "extensionsUsed": [
    "KHR_materials_unlit"
  ],
  "images": [
    {
      "uri": "textures/Blender_Render_Madara_Material_baseColor.png"
    },
    {
      "uri": "textures/Blender_Render_Madara_Eyes_baseColor.jpeg"
    }
  ],
  "materials": [
    {
      "doubleSided": true,
      "extensions": {
        "KHR_materials_unlit": {}
      },
      "name": "Root",
      "pbrMetallicRoughness": {
        "metallicFactor": 0.0
      }
    },
    {
      "doubleSided": true,
      "extensions": {
        "KHR_materials_unlit": {}
      },
      "name": "Blender_Render_Madara_Material",
      "pbrMetallicRoughness": {
        "baseColorTexture": {
          "index": 0
        },
        "metallicFactor": 0.0
      }
    },
    {
      "doubleSided": true,
      "extensions": {
        "KHR_materials_unlit": {}
      },
      "name": "Blender_Render_Madara_Eyes",
      "pbrMetallicRoughness": {
        "baseColorTexture": {
          "index": 1
        },
        "metallicFactor": 0.0
      }
    }
  ],
  "meshes": [
    {
      "name": "L2_Madara_Lower_Metal_Plates_Middle_0",
      "primitives": [
        {
          "attributes": {
            "NORMAL": 1,
            "POSITION": 0,
            "TEXCOORD_0": 2
          },
          "indices": 3,
          "material": 1,
          "mode": 4
        }
      ]
    },
    {
      "name": "L2_Madara_Lower_Metal_Plates_Right_0",
      "primitives": [
        {
          "attributes": {
            "NORMAL": 5,
            "POSITION": 4,
            "TEXCOORD_0": 6
          },
          "indices": 7,
          "material": 1,
          "mode": 4
        }
      ]
    },
    {
      "name": "L2_Madara_Lower_Metal_Plates_Left_0",
      "primitives": [
        {
          "attributes": {
            "NORMAL": 9,
            "POSITION": 8,
            "TEXCOORD_0": 10
          },
          "indices": 11,
          "material": 1,
          "mode": 4
        }
      ]
    },
    {
      "name": "L2_Madara_Lower_robe_0",
      "primitives": [
        {
          "attributes": {
            "NORMAL": 13,
            "POSITION": 12,
            "TEXCOORD_0": 14
          },
          "indices": 15,
          "material": 1,
          "mode": 4
        }
      ]
    },
    {
      "name": "L2_Madara_Upper_Metal_Plates_0",
      "primitives": [
        {
          "attributes": {
            "NORMAL": 17,
            "POSITION": 16,
            "TEXCOORD_0": 18
          },
          "indices": 19,
          "material": 1,
          "mode": 4
        }
      ]
    },
    {
      "name": "L2_Top_hair_Plane.001_0",
      "primitives": [
        {
          "attributes": {
            "NORMAL": 21,
            "POSITION": 20,
            "TEXCOORD_0": 22
          },
          "indices": 23,
          "material": 1,
          "mode": 4
        }
      ]
    },
    {
      "name": "L2_Back_hair_Plane.001_0",
      "primitives": [
        {
          "attributes": {
            "NORMAL": 25,
            "POSITION": 24,
            "TEXCOORD_0": 26
          },
          "indices": 27,
          "material": 1,
          "mode": 4
        }
      ]
    },
    {
      "name": "L2_Front_Hair_Plane.000_0",
      "primitives": [
        {
          "attributes": {
            "NORMAL": 29,
            "POSITION": 28,
            "TEXCOORD_0": 30
          },
          "indices": 31,
          "material": 1,
          "mode": 4
        }
      ]
    },
    {
      "name": "L2_Madara_torso_0",
      "primitives": [
        {
          "attributes": {
            "NORMAL": 33,
            "POSITION": 32,
            "TEXCOORD_0": 34
          },
          "indices": 35,
          "material": 1,
          "mode": 4
        }
      ]
    },
    {
      "name": "L2_Madara_torso_1",
      "primitives": [
        {
          "attributes": {
            "NORMAL": 37,
            "POSITION": 36,
            "TEXCOORD_0": 38
          },
          "indices": 39,
          "material": 2,
          "mode": 4
        }
      ]
    },
    {
      "name": "L2_Madara_Eye_brows_0",
      "primitives": [
        {
          "attributes": {
            "NORMAL": 41,
            "POSITION": 40,
            "TEXCOORD_0": 42
          },
          "indices": 43,
          "material": 1,
          "mode": 4
        }
      ]
    },
    {
      "name": "Sphere_for_copying_normals_to_madara_face_0",
      "primitives": [
        {
          "attributes": {
            "NORMAL": 45,
            "POSITION": 44
          },
          "indices": 46,
          "material": 0,
          "mode": 4
        }
      ]
    }
  ],
  "nodes": [
    {
      "children": [
        1
      ],
      "matrix": [
        0.4368894696235657,
        0.0,
        0.0,
        0.0,
        0.0,
        9.700894967847111e-17,
        -0.4368894696235657,
        0.0,
        0.0,
        0.4368894696235657,
        9.700894967847111e-17,
        0.0,
        0.0,
        0.0,
        0.0,
        1.0
      ],
      "name": "Sketchfab_model"
    },
    {
      "children": [
        2,
        8,
        10,
        12,
        19,
        22,
        24,
        26
      ],
      "name": "Root"
    },
    {
      "children": [
        3,
        4,
        6
      ],
      "name": "L2_Madara_Lower_Metal_Plates_Middle"
    },
    {
      "mesh": 0,
      "name": "L2_Madara_Lower_Metal_Plates_Middle_0"
    },
    {
      "children": [
        5
      ],
      "name": "L2_Madara_Lower_Metal_Plates_Right"
    },
    {
      "mesh": 1,
      "name": "L2_Madara_Lower_Metal_Plates_Right_0"
    },
    {
      "children": [
        7
      ],
      "matrix": [
        -1.0,
        0.0,
        0.0,
        0.0,
        0.0,
        1.0,
        0.0,
        0.0,
        0.0,
        -0.0,
        1.0,
        0.0,
        0.0,
        0.0,
        0.0,
        1.0
      ],
      "name": "L2_Madara_Lower_Metal_Plates_Left"
    },
    {
      "mesh": 2,
      "name": "L2_Madara_Lower_Metal_Plates_Left_0"
    },
    {
      "children": [
        9
      ],
      "matrix": [
        1.0,
        0.0,
        0.0,
        0.0,
        0.0,
        -0.0,
        1.0,
        0.0,
        0.0,
        -1.0,
        -0.0,
        0.0,
        0.0,
        -0.009360000000000002,
        1.33878,
        1.0
      ],
      "name": "L2_Madara_Lower_robe"
    },
    {
      "mesh": 3,
      "name": "L2_Madara_Lower_robe_0"
    },
    {
      "children": [
        11
      ],
      "matrix": [
        1.0,
        0.0,
        0.0,
        0.0,
        0.0,
        1.0,
        0.0,
        0.0,
        0.0,
        0.0,
        1.0,
        0.0,
        0.0,
        0.0,
        3.5575900000000003,
        1.0
      ],
      "name": "L2_Madara_Upper_Metal_Plates"
    },
    {
      "mesh": 4,
      "name": "L2_Madara_Upper_Metal_Plates_0"
    },
    {
      "children": [
        13,
        15,
        17
      ],
      "matrix": [
        0.22869000000000003,
        0.0,
        0.0,
        0.0,
        0.0,
        0.22869000000000003,
        0.0,
        0.0,
        0.0,
        0.0,
        0.22869000000000003,
        0.0,
        0.0,
        0.0,
        3.9845,
        1.0
      ],
      "name": "L2_Madara_Hair_collection"
    },
    {
      "children": [
        14
      ],
      "matrix": [
        0.92703,
        0.0,
        0.0,
        0.0,
        0.0,
        -0.0,
        0.92703,
        0.0,
        0.0,
        -0.92703,
        -0.0,
        0.0,
        -0.05895000000000001,
        0.05340000000000001,
        -0.9249200000000001,
        1.0
      ],
      "name": "L2_Top_hair_Plane.001"
    },
    {
      "mesh": 5,
      "name": "L2_Top_hair_Plane.001_0"
    },
    {
      "children": [
        16
      ],
      "matrix": [
        0.92703,
        0.0,
        0.0,
        0.0,
        0.0,
        -0.0,
        0.92703,
        0.0,
        0.0,
        -0.92703,
        -0.0,
        0.0,
        -0.05895000000000001,
        0.05340000000000001,
        -0.9249200000000001,
        1.0
      ],
      "name": "L2_Back_hair_Plane.001"
    },
    {
      "mesh": 6,
      "name": "L2_Back_hair_Plane.001_0"
    },
    {
      "children": [
        18
      ],
      "matrix": [
        0.92703,
        0.0,
        0.0,
        0.0,
        0.0,
        -0.0,
        0.92703,
        0.0,
        0.0,
        -0.92703,
        -0.0,
        0.0,
        -0.05895000000000001,
        0.05340000000000001,
        -0.9249200000000001,
        1.0
      ],
      "name": "L2_Front_Hair_Plane.000"
    },
    {
      "mesh": 7,
      "name": "L2_Front_Hair_Plane.000_0"
    },
    {
      "children": [
        20,
        21
      ],
      "matrix": [
        1.0,
        0.0,
        0.0,
        0.0,
        0.0,
        -0.0,
        1.0,
        0.0,
        0.0,
        -1.0,
        -0.0,
        0.0,
        0.0,
        0.0,
        0.0,
        1.0
      ],
      "name": "L2_Madara_torso"
    },
    {
      "mesh": 8,
      "name": "L2_Madara_torso_0"
    },
    {
      "mesh": 9,
      "name": "L2_Madara_torso_1"
    },
    {
      "children": [
        23
      ],
      "matrix": [
        1.0,
        0.0,
        0.0,
        0.0,
        0.0,
        -0.0,
        1.0,
        0.0,
        0.0,
        -1.0,
        -0.0,
        0.0,
        0.0,
        0.0,
        0.0,
        1.0
      ],
      "name": "L2_Madara_Eye_brows"
    },
    {
      "mesh": 10,
      "name": "L2_Madara_Eye_brows_0"
    },
    {
      "children": [
        25
      ],
      "matrix": [
        0.00041000000000000015,
        -0.0017200000000000006,
        0.08319000000000003,
        0.0,
        -0.009870000000000004,
        0.08261000000000002,
        0.0017500000000000007,
        0.0,
        0.08262000000000003,
        0.009870000000000004,
        -0.00020000000000000006,
        0.0,
        0.0009100000000000003,
        0.053030000000000015,
        3.84082,
        1.0
      ],
      "name": "Sphere_for_copying_normals_to_madara_face"
    },
    {
      "mesh": 11,
      "name": "Sphere_for_copying_normals_to_madara_face_0"
    },
    {
      "children": [
        27
      ],
      "matrix": [
        1.0,
        0.0,
        0.0,
        0.0,
        0.0,
        1.0,
        0.0,
        0.0,
        0.0,
        0.0,
        1.0,
        0.0,
        0.9721,
        -1.1420700000000001,
        3.62582,
        1.0
      ],
      "name": "Simple_point_light_source"
    },
    {
      "name": "Simple_point_light_source"
    }
  ],
  "samplers": [
    {
      "magFilter": 9729,
      "minFilter": 9987,
      "wrapS": 10497,
      "wrapT": 10497
    }
  ],
  "scene": 0,
  "scenes": [
    {
      "name": "Sketchfab_Scene",
      "nodes": [
        0
      ]
    }
  ],
  "textures": [
    {
      "sampler": 0,
      "source": 0
    },
    {
      "sampler": 0,
      "source": 1
    }
  ]
}
